<?xml version="1.0" encoding="UTF-8" standalone="no"?>
<!-- Created with Inkscape (http://www.inkscape.org/) -->

<svg
   xmlns:dc="http://purl.org/dc/elements/1.1/"
   xmlns:cc="http://creativecommons.org/ns#"
   xmlns:rdf="http://www.w3.org/1999/02/22-rdf-syntax-ns#"
   xmlns:svg="http://www.w3.org/2000/svg"
   xmlns="http://www.w3.org/2000/svg"
   xmlns:sodipodi="http://sodipodi.sourceforge.net/DTD/sodipodi-0.dtd"
   xmlns:inkscape="http://www.inkscape.org/namespaces/inkscape"
   width="48"
   height="48"
   viewBox="0 0 48 48.000001"
   id="svg2"
   version="1.1"
   inkscape:version="0.91 r13725"
   sodipodi:docname="snes2.svg"
   inkscape:export-filename="D:\MyDocs\Documents\RetroArch\ctr\assets\snes9x2005.png"
   inkscape:export-xdpi="90"
   inkscape:export-ydpi="90">
  <defs
     id="defs4" />
  <sodipodi:namedview
     id="base"
     pagecolor="#ffffff"
     bordercolor="#666666"
     borderopacity="1.0"
     inkscape:pageopacity="0.0"
     inkscape:pageshadow="2"
     inkscape:zoom="11.2"
     inkscape:cx="7.1438411"
     inkscape:cy="21.669765"
     inkscape:document-units="px"
     inkscape:current-layer="layer3"
     showgrid="true"
     units="px"
     inkscape:window-width="1857"
     inkscape:window-height="1057"
     inkscape:window-x="55"
     inkscape:window-y="-8"
     inkscape:window-maximized="1"
     inkscape:snap-global="true"
     inkscape:snap-bbox="true"
     inkscape:snap-bbox-edge-midpoints="false"
     inkscape:bbox-paths="true"
     inkscape:snap-bbox-midpoints="false"
     inkscape:bbox-nodes="true"
     inkscape:object-nodes="true">
    <inkscape:grid
       type="xygrid"
       id="grid3336"
       empspacing="4"
       dotted="false" />
  </sodipodi:namedview>
  <metadata
     id="metadata7">
    <rdf:RDF>
      <cc:Work
         rdf:about="">
        <dc:format>image/svg+xml</dc:format>
        <dc:type
           rdf:resource="http://purl.org/dc/dcmitype/StillImage" />
        <dc:title />
      </cc:Work>
    </rdf:RDF>
  </metadata>
  <g
     inkscape:groupmode="layer"
     id="layer3"
     inkscape:label="image 1"
     style="opacity:1">
    <path
       style="opacity:1;fill:#c9c6c7;fill-opacity:1;stroke:none;stroke-width:2;stroke-linecap:round;stroke-miterlimit:4;stroke-dasharray:none;stroke-opacity:1"
       d="M 22.097656,-7.8886719 C 15.736145,-7.9727357 9.5068015,-6.0706147 4.2773438,-2.4472656 l -14.4550778,0 0,49.1972656 c 0,0 -2.616901,-0.291084 12.2140064,-0.446429 9.7416216,8.683941 30.3089056,8.910844 41.2391186,-1.993024 11.941665,-11.942251 11.941665,-31.303843 0,-43.2460939 C 37.649566,-4.561159 30.05278,-7.7727855 22.097656,-7.8886719 Z"
       id="path5114"
       inkscape:connector-curvature="0"
       sodipodi:nodetypes="cccccccc" />
    <circle
       style="opacity:1;fill:#8a898b;fill-opacity:1;stroke:none;stroke-width:2;stroke-linecap:round;stroke-miterlimit:4;stroke-dasharray:none;stroke-opacity:1"
       id="path5112"
       cx="22.901785"
       cy="23.223215"
       r="26.383928" />
    <rect
       style="opacity:1;fill:#c9c6c7;fill-opacity:1;stroke:none;stroke-width:2;stroke-linecap:round;stroke-miterlimit:4;stroke-dasharray:none;stroke-opacity:1"
       id="rect5149-5"
       width="30.584728"
       height="13.472119"
       x="-11.927488"
       y="17.944872"
       transform="matrix(0.82015206,-0.57214561,0.5538227,0.83263463,0,0)"
       ry="6.7360597" />
    <rect
       style="opacity:1;fill:#c9c6c7;fill-opacity:1;stroke:none;stroke-width:2;stroke-linecap:round;stroke-miterlimit:4;stroke-dasharray:none;stroke-opacity:1"
       id="rect5149"
       width="30.584728"
       height="13.472119"
       x="-6.6232715"
       y="33.558769"
       transform="matrix(0.82015206,-0.57214561,0.5538227,0.83263463,0,0)"
       ry="6.7360597" />
    <circle
       style="opacity:1;fill:#00a270;fill-opacity:1;stroke:none;stroke-width:2;stroke-linecap:round;stroke-miterlimit:4;stroke-dasharray:none;stroke-opacity:1"
       id="path5120"
       cx="9.5"
       cy="23.5"
       r="5.5" />
    <path
       id="path5120-8"
       style="opacity:1;fill:#0064c5;fill-opacity:1;stroke:none;stroke-width:2;stroke-linecap:round;stroke-miterlimit:4;stroke-dasharray:none;stroke-opacity:1"
       d="M 29,13.5 A 5.5,5.5 0 0 1 23.5,19 5.5,5.5 0 0 1 18,13.5 5.5,5.5 0 0 1 23.5,8 5.5,5.5 0 0 1 29,13.5 Z" />
    <circle
       style="opacity:1;fill:#ffdd38;fill-opacity:1;stroke:none;stroke-width:2;stroke-linecap:round;stroke-miterlimit:4;stroke-dasharray:none;stroke-opacity:1"
       id="path5120-9"
       cx="22.5"
       cy="33.5"
       r="5.5" />
    <path
       id="path5120-4"
       style="opacity:1;fill:#db2d2a;fill-opacity:1;stroke:none;stroke-width:2;stroke-linecap:round;stroke-miterlimit:4;stroke-dasharray:none;stroke-opacity:1"
       d="M 42,23.5 A 5.5,5.5 0 0 1 36.5,29 5.5,5.5 0 0 1 31,23.5 5.5,5.5 0 0 1 36.5,18 5.5,5.5 0 0 1 42,23.5 Z" />
    <path
       style="opacity:1;fill:#c9c6c7;fill-opacity:1;fill-rule:evenodd;stroke:none;stroke-width:1px;stroke-linecap:butt;stroke-linejoin:miter;stroke-opacity:1"
       d="m 31,5 3,0 -1,4 -3,0 z"
       id="path5168"
       inkscape:connector-curvature="0"
       sodipodi:nodetypes="ccccc" />
    <path
       style="opacity:1;fill:#c9c6c7;fill-opacity:1;fill-rule:evenodd;stroke:none;stroke-width:1px;stroke-linecap:butt;stroke-linejoin:miter;stroke-opacity:1"
       d="m 45,16 3,0 -1,4 -3,0 z"
       id="path5168-9"
       inkscape:connector-curvature="0"
       sodipodi:nodetypes="ccccc" />
    <path
       style="opacity:1;fill:#c9c6c7;fill-opacity:1;fill-rule:evenodd;stroke:none;stroke-width:1px;stroke-linecap:butt;stroke-linejoin:miter;stroke-opacity:1"
       d="m 13,39 3,0 -1,4 -3,0 z"
       id="path5168-4"
       inkscape:connector-curvature="0"
       sodipodi:nodetypes="ccccc" />
    <path
       style="opacity:1;fill:#c9c6c7;fill-opacity:1;fill-rule:evenodd;stroke:none;stroke-width:1px;stroke-linecap:butt;stroke-linejoin:miter;stroke-opacity:1"
       d="m -1,28 3,0 -1,4 -3,0 z"
       id="path5168-8"
       inkscape:connector-curvature="0"
       sodipodi:nodetypes="ccccc" />
  </g>
  <g
     inkscape:groupmode="layer"
     id="layer2"
     inkscape:label="image"
     style="display:inline;opacity:1" />
</svg>
